PathFileType	4	(X/Y/Z)	s01c0202.trc
DataRate	CameraRate	NumFrames	NumMarkers	Units	OrigDataRate	OrigDataStartFrame	OrigNumFrames
200	200	4	48	mm	200	500	2000
Frame#	Time	racr			lacr			c7			jug			rlel			rdr			llel			ldr			s2			lic			ric			lasi			rasi			rpsi			lpsi			rgt			lgt			rth1			rth2			rth3			rth4			rlfc			rsh1			rsh2			rsh3			rsh4			rlmal			rmmal			rcal			rtoe			rmt5			lth1			lth2			lth4			lth3			llfc			lsh1			lsh2			lsh3			lsh4			llmal			lmmal			lcal			ltoe			lmt5			SBIKE			LBIKE			RBIKE			
		X1	Y1	Z1	X2	Y2	Z2	X3	Y3	Z3	X4	Y4	Z4	X5	Y5	Z5	X6	Y6	Z6	X7	Y7	Z7	X8	Y8	Z8	X9	Y9	Z9	X10	Y10	Z10	X11	Y11	Z11	X12	Y12	Z12	X13	Y13	Z13	X14	Y14	Z14	X15	Y15	Z15	X16	Y16	Z16	X17	Y17	Z17	X18	Y18	Z18	X19	Y19	Z19	X20	Y20	Z20	X21	Y21	Z21	X22	Y22	Z22	X23	Y23	Z23	X24	Y24	Z24	X25	Y25	Z25	X26	Y26	Z26	X27	Y27	Z27	X28	Y28	Z28	X29	Y29	Z29	X30	Y30	Z30	X31	Y31	Z31	X32	Y32	Z32	X33	Y33	Z33	X34	Y34	Z34	X35	Y35	Z35	X36	Y36	Z36	X37	Y37	Z37	X38	Y38	Z38	X39	Y39	Z39	X40	Y40	Z40	X41	Y41	Z41	X42	Y42	Z42	X43	Y43	Z43	X44	Y44	Z44	X45	Y45	Z45	X46	Y46	Z46	X47	Y47	Z47	X48	Y48	Z48	
500	2.5000	473.098602	1274.069092	-43.746258	530.753784	1258.452881	-378.940582	467.224731	1361.297241	-219.993240	464.079437	1191.403442	-213.885559	465.146759	1006.228577	58.323914	678.191650	897.203918	-35.494495	504.502716	1026.231323	-552.624878	676.686279	888.179993	-443.617096	-57.710381	1165.910645	-271.569916	125.457596	1164.708496	-433.826935	83.543053	1165.794800	-99.455475	120.251152	1116.919800	-409.366760	116.760155	1123.401367	-132.468872	-30.964743	1204.059937	-220.012329	-27.526112	1205.070435	-326.788177	40.502808	1054.987305	-80.637878	68.604919	1045.668335	-462.489838	125.035568	943.651794	-61.909145	180.300323	882.460327	-69.336563	235.921692	812.108276	-83.550117	222.438309	917.388550	-83.898872	288.953857	711.757324	-104.066444	272.277832	595.569458	-64.385704	271.597198	510.540009	-67.278740	262.318665	422.388885	-74.950699	317.541992	509.709381	-107.192673	237.771683	299.115417	-92.627251	293.932281	324.699860	-173.840195	195.496597	270.441772	-143.582443	464.262146	233.533432	-132.535873	359.784821	209.064529	-61.359295	161.187317	969.265320	-458.228851	248.578583	947.407104	-456.276611	262.342957	998.419312	-445.814941	327.279785	917.213318	-438.345703	403.841461	830.912598	-411.021088	308.353088	777.722595	-442.782440	244.250732	720.653931	-435.898773	178.500595	666.675720	-421.444336	281.399323	684.018677	-400.652008	82.032310	589.484680	-407.027649	110.359016	577.441223	-324.704376	19.432896	587.865417	-362.314667	225.384293	399.099823	-372.526123	131.975723	450.840851	-437.138214	-223.863220	892.974121	-253.086563	-12.536071	84.509781	-456.174194	-21.530674	80.760246	-56.113663	
501	2.5050	473.624603	1275.822876	-44.740093	529.566467	1260.890503	-380.945007	466.693420	1364.120605	-220.821991	464.141235	1194.618164	-215.452682	465.091095	1007.366577	57.402546	678.523010	897.183289	-35.466045	503.598297	1026.572632	-551.614807	676.550293	888.457581	-443.038879	-57.646568	1165.254395	-271.218872	125.362556	1166.027222	-433.795074	83.299988	1165.967407	-99.238617	120.767479	1117.916016	-408.774719	117.057419	1123.695435	-132.074783	-31.099655	1203.407593	-219.537811	-27.801525	1204.707764	-326.251038	40.391464	1054.125122	-80.548355	69.957542	1046.649658	-462.257294	124.042000	942.483521	-61.287006	178.522598	880.542053	-68.561272	233.329239	809.536072	-82.527748	220.947296	914.995789	-82.476883	285.541565	708.460083	-102.987862	268.979248	592.330994	-63.436058	268.266693	507.257599	-66.508865	259.310425	419.190948	-74.371071	314.470551	506.630035	-106.265938	235.169434	296.160553	-92.651192	291.750916	321.433167	-173.623627	192.738052	268.541016	-143.517975	460.830566	227.148300	-132.724228	355.973907	204.348679	-61.537323	163.049225	971.307495	-458.060486	250.748856	950.622620	-456.122559	263.890625	1001.723938	-445.714508	329.897156	921.520203	-438.129669	407.613403	836.560364	-410.537292	312.108185	783.344727	-442.277313	248.177628	726.045837	-435.486786	182.477325	671.907532	-421.161621	285.400085	689.364136	-400.382263	86.418617	594.446777	-406.888672	114.867027	582.182922	-324.826935	23.883665	592.826233	-362.133820	230.642883	404.738281	-372.789001	136.305923	455.876282	-436.857269	-223.919525	892.970032	-252.993744	-12.572050	84.565758	-456.128235	-21.536789	80.772346	-56.110332	
502	2.5100	474.240356	1277.820312	-45.997639	528.364746	1263.458740	-382.997131	466.107788	1366.980835	-221.916031	463.928497	1197.907471	-217.103973	465.529694	1008.838013	56.792263	678.903931	897.249573	-35.652088	502.796875	1026.941284	-550.768433	676.439636	888.729797	-442.617920	-57.564983	1164.632690	-270.777679	124.959618	1167.385620	-433.662140	83.084335	1166.238647	-99.085281	121.237396	1119.120605	-408.166595	117.198936	1123.894531	-131.182602	-31.212837	1202.815674	-218.960434	-28.117182	1204.409790	-325.618591	40.395943	1053.552246	-80.354889	71.275063	1047.735718	-461.982819	123.018867	941.398560	-60.584919	176.838745	878.871765	-67.810921	230.812027	807.165466	-81.504379	219.730560	912.794189	-81.612061	282.139160	705.448914	-101.932091	265.382629	589.312073	-62.601364	264.961731	504.278076	-65.822830	256.173492	416.095642	-73.836388	311.322021	503.754028	-105.372406	232.484512	293.415131	-92.798401	289.376984	318.287262	-173.393723	189.882660	267.039215	-143.438339	457.214142	220.437027	-132.844879	352.059082	199.847610	-61.578991	164.803513	973.466980	-457.829651	252.722763	953.839966	-455.936310	265.185455	1005.282288	-445.695740	332.314758	925.865234	-437.935425	411.101471	842.586975	-410.021698	315.774567	788.939880	-441.755737	252.025925	731.341797	-435.041901	186.513153	677.031372	-420.822327	289.413116	694.798218	-400.222198	90.827644	599.215210	-406.747864	119.407257	586.729919	-324.958130	28.277533	597.560608	-361.806091	235.298431	409.868958	-372.684937	141.008713	460.735321	-436.745422	-223.904221	892.982605	-252.935654	-12.566103	84.572884	-456.108429	-21.534492	80.756691	-56.096394	
503	2.5150	474.823151	1279.926025	-47.538830	527.187988	1266.076782	-385.080933	465.518097	1369.741821	-223.151489	463.821899	1200.933716	-218.831711	466.158081	1010.594543	56.100151	679.394714	897.481750	-35.852745	501.961487	1027.442749	-550.125549	676.349792	889.103394	-442.300262	-57.538601	1164.238892	-270.224182	124.120895	1168.678833	-433.307739	82.956497	1166.707397	-98.947578	121.623779	1120.292725	-407.483521	117.466728	1124.312500	-130.609741	-31.359558	1202.364624	-218.245499	-28.439602	1204.249023	-324.855255	40.337959	1053.072876	-80.085007	72.415413	1048.962402	-461.661072	121.983414	940.435913	-60.051884	175.049255	877.308533	-67.059776	228.072266	805.089111	-80.439590	218.550934	910.777649	-80.815414	278.740997	702.649292	-100.863014	261.852722	586.537415	-61.786186	261.627228	501.546844	-65.021042	253.026337	413.382812	-73.357300	308.163055	501.147278	-104.424530	229.696793	291.029663	-92.783707	286.811523	315.268463	-173.148621	187.130432	265.768768	-143.430893	453.470184	214.178101	-132.983185	347.745758	195.300034	-62.133167	166.459335	975.750183	-457.521027	254.615891	957.159424	-455.605377	266.430145	1008.660889	-445.270569	334.530975	930.214539	-437.643646	414.469025	848.239136	-409.431183	319.234863	794.500977	-441.303925	255.719513	736.728088	-434.615234	190.521027	682.146423	-420.637054	293.293610	700.145996	-400.025757	95.249542	603.776978	-406.617126	123.952408	591.088501	-325.069580	32.609638	602.012451	-361.700562	240.111176	414.767944	-372.505096	145.790695	465.508820	-436.562866	-223.931427	893.004272	-252.884583	-12.549749	84.585136	-456.152252	-21.534470	80.772141	-56.095379	
